<svg xmlns="http://www.w3.org/2000/svg" version="1.1" xmlns:xlink="http://www.w3.org/1999/xlink" xmlns:svgjs="http://svgjs.dev/svgjs" width="1440" height="1280" preserveAspectRatio="none" viewBox="0 0 1440 1280"><g mask="url(&quot;#SvgjsMask1961&quot;)" fill="none"><rect width="1440" height="1280" x="0" y="0" fill="url(&quot;#SvgjsLinearGradient1962&quot;)"></rect><path d="M176.42 1273.75 a296.12 296.12 0 1 0 592.24 0 a296.12 296.12 0 1 0 -592.24 0z" fill="rgba(255, 11, 109, 0.16)" class="triangle-float1"></path><path d="M136.78 277.88 a260.01 260.01 0 1 0 520.02 0 a260.01 260.01 0 1 0 -520.02 0z" fill="rgba(255, 11, 109, 0.16)" class="triangle-float1"></path><path d="M430.49 807.22 a386.25 386.25 0 1 0 772.5 0 a386.25 386.25 0 1 0 -772.5 0z" fill="rgba(255, 11, 109, 0.16)" class="triangle-float3"></path><path d="M85.7 133.59 a382.52 382.52 0 1 0 765.04 0 a382.52 382.52 0 1 0 -765.04 0z" fill="rgba(255, 11, 109, 0.16)" class="triangle-float1"></path><path d="M768.19 735.33 a276.35 276.35 0 1 0 552.7 0 a276.35 276.35 0 1 0 -552.7 0z" fill="rgba(255, 11, 109, 0.16)" class="triangle-float1"></path><path d="M-306.08 186.47 a357.76 357.76 0 1 0 715.52 0 a357.76 357.76 0 1 0 -715.52 0z" fill="rgba(255, 11, 109, 0.16)" class="triangle-float3"></path></g><defs><mask id="SvgjsMask1961"><rect width="1440" height="1280" fill="#ffffff"></rect></mask><linearGradient x1="50%" y1="0%" x2="50%" y2="100%" gradientUnits="userSpaceOnUse" id="SvgjsLinearGradient1962"><stop stop-color="rgba(255, 204, 218, 1)" offset="0"></stop><stop stop-color="rgba(255, 108, 178, 1)" offset="1"></stop></linearGradient><style>
                @keyframes float1 {
                    0%{transform: translate(0, 0)}
                    50%{transform: translate(-10px, 0)}
                    100%{transform: translate(0, 0)}
                }

                .triangle-float1 {
                    animation: float1 5s infinite;
                }

                @keyframes float2 {
                    0%{transform: translate(0, 0)}
                    50%{transform: translate(-5px, -5px)}
                    100%{transform: translate(0, 0)}
                }

                .triangle-float2 {
                    animation: float2 4s infinite;
                }

                @keyframes float3 {
                    0%{transform: translate(0, 0)}
                    50%{transform: translate(0, -10px)}
                    100%{transform: translate(0, 0)}
                }

                .triangle-float3 {
                    animation: float3 6s infinite;
                }
            </style></defs></svg>